HIERARCHY
ROOT root
{
	OFFSET	0	13.1	24.9
	CHANNELS 6  Xposition Yposition Zposition Xrotation Yrotation Zrotation
	JOINT spine_1
	{
		OFFSET	0	9.99999	0
		CHANNELS 3  Xrotation Yrotation Zrotation
		JOINT spine_2
		{
			OFFSET	0	112	-10
			CHANNELS 3  Xrotation Yrotation Zrotation
			JOINT spine_3
			{
				OFFSET	0	206.5	19.3
				CHANNELS 3  Xrotation Yrotation Zrotation
				JOINT spine_4
				{
					OFFSET	0	110.4	14.6
					CHANNELS 3  Xrotation Yrotation Zrotation
					JOINT neck_1
					{
						OFFSET	0	71.8	-50.3
						CHANNELS 3  Xrotation Yrotation Zrotation
						JOINT neck_2
						{
							OFFSET	0	86.2	-25.8
							CHANNELS 3  Xrotation Yrotation Zrotation
							JOINT head_ee
							{
								OFFSET	0	179.8	-8.7
								CHANNELS 3  Xrotation Yrotation Zrotation
								End Site
								{
									OFFSET	1	0	0
								}
							}
						}
					}
					JOINT left_clavicle
					{
						OFFSET	-43.2	22.4	-70.8
						CHANNELS 3  Xrotation Yrotation Zrotation
						JOINT left_shoulder
						{
							OFFSET	-93.9	-5.79999	48.7
							CHANNELS 3  Xrotation Yrotation Zrotation
							JOINT left_elbow
							{
								OFFSET	-291.4	-30.8	15.2
								CHANNELS 3  Xrotation Yrotation Zrotation
								JOINT left_lowarm_twist
								{
									OFFSET	-110.7	-3.89999	13.6
									CHANNELS 3  Xrotation Yrotation Zrotation
									JOINT left_hand
									{
										OFFSET	-110.7	-3.89999	13.6
										CHANNELS 3  Xrotation Yrotation Zrotation
										JOINT left_ee
										{
											OFFSET	-80.8	-5.10001	12.1
											CHANNELS 3  Xrotation Yrotation Zrotation
											End Site
											{
												OFFSET	1	0	0
											}
										}
									}
								}
							}
						}
					}
					JOINT right_clavicle
					{
						OFFSET	43.2	22.4	-70.8
						CHANNELS 3  Xrotation Yrotation Zrotation
						JOINT right_shoulder
						{
							OFFSET	93.9	-5.79999	48.7
							CHANNELS 3  Xrotation Yrotation Zrotation
							JOINT right_elbow
							{
								OFFSET	291.4	-30.8	15.2
								CHANNELS 3  Xrotation Yrotation Zrotation
								JOINT right_lowarm_twist
								{
									OFFSET	110.7	-3.89999	13.6
									CHANNELS 3  Xrotation Yrotation Zrotation
									JOINT right_hand
									{
										OFFSET	110.7	-3.89999	13.6
										CHANNELS 3  Xrotation Yrotation Zrotation
										JOINT right_ee
										{
											OFFSET	80.8	-5.10001	12.1
											CHANNELS 3  Xrotation Yrotation Zrotation
											End Site
											{
												OFFSET	1	0	0
											}
										}
									}
								}
							}
						}
					}
				}
			}
		}
	}
	JOINT left_hip
	{
		OFFSET	-82.8	-127.5	0.300001
		CHANNELS 3  Xrotation Yrotation Zrotation
		JOINT left_knee
		{
			OFFSET	-28.2	-396.7	2.2
			CHANNELS 3  Xrotation Yrotation Zrotation
			JOINT left_ankle
			{
				OFFSET	-11.7	-411.3	35.4
				CHANNELS 3  Xrotation Yrotation Zrotation
				JOINT left_toes
				{
					OFFSET	0	-60	-88.6
					CHANNELS 3  Xrotation Yrotation Zrotation
					JOINT left_foot_ee
					{
						OFFSET	-22.5	-16.5	-42.2
						CHANNELS 3  Xrotation Yrotation Zrotation
						End Site
						{
							OFFSET	1	0	0
						}
					}
				}
			}
		}
	}
	JOINT right_hip
	{
		OFFSET	82.8	-127.5	0.300001
		CHANNELS 3  Xrotation Yrotation Zrotation
		JOINT right_knee
		{
			OFFSET	28.2	-396.7	2.2
			CHANNELS 3  Xrotation Yrotation Zrotation
			JOINT right_ankle
			{
				OFFSET	11.7	-411.3	35.4
				CHANNELS 3  Xrotation Yrotation Zrotation
				JOINT right_toes
				{
					OFFSET	0	-60	-88.6
					CHANNELS 3  Xrotation Yrotation Zrotation
					JOINT right_foot_ee
					{
						OFFSET	22.5	-16.5	-42.2
						CHANNELS 3  Xrotation Yrotation Zrotation
						End Site
						{
							OFFSET	1	0	0
						}
					}
				}
			}
		}
	}
}
MOTION
Frames: 6
Frame Time: 0.02
3420.81825013 724.641 -1537.99854619 -170.241089962 86.5235382569 169.972603922 0.676068 0.651942 -0.236719 0.675853 0.665684 -0.194753 0.673474 0.691106 -0.0586089 0.674102 0.673176 -0.167026 -8.15047 1.60364 0.421193 -8.151 2.69781 0.769127 -0.0 0.0 -0.0 3.01534 25.0779 6.88444 -24.2657 -14.0922 69.3865 1.99125 -44.603 0.816801 -85.1998 -8.47689 5.17963 5.03265 31.5575 43.2212 -0.0 0.0 -0.0 11.1995 4.73774 -22.399 -21.6535 48.9417 -53.9553 0.182519 5.16645 -0.00823464 -84.6111 8.40327 -5.19397 -10.1704 -20.6199 71.393 0.0 0.0 0.0 12.5629 2.21534 -4.27947 -41.5992 -0.571632 6.22069 39.8115 8.99982 -4.85325 -18.2747 0.0 0.0 -0.0 0.0 -0.0 8.84787 -24.5667 8.6821 -30.7385 -0.0150712 -4.66107 33.6902 30.4102 5.277 10.5904 -0.0 -0.0 0.0 0.0 0.0 
3407.04183507 727.27 -1534.41104226 -170.180888611 85.7876526069 169.661363903 0.8993 0.775948 -0.170954 0.898973 0.785253 -0.121229 0.897201 0.793824 0.0341006 0.898069 0.789246 -0.0917049 -7.41565 1.08509 0.734097 -7.41446 1.49369 0.957375 -0.0 0.0 -0.0 2.39496 24.4709 6.03647 -24.3886 -10.8317 70.4722 1.82825 -42.1618 0.704813 -84.9484 -8.44548 5.18585 4.89712 31.3064 42.1746 -0.0 0.0 -0.0 11.3089 5.0174 -22.6467 -21.0645 49.173 -53.7761 0.196934 5.57201 -0.00958349 -84.6793 8.41181 -5.19235 -10.3606 -22.1041 70.8652 0.0 0.0 0.0 13.8553 3.54328 -4.27778 -40.7208 -0.513258 6.09888 35.0703 9.53315 -4.41576 -18.5632 0.0 0.0 -0.0 0.0 -0.0 7.22453 -25.8594 9.31117 -28.5865 -0.0956047 -4.34065 34.806 32.0718 5.52119 8.16593 -0.0 -0.0 0.0 0.0 0.0 
3407.62928551 727.27 -1536.03362517 -168.699945253 86.3346794863 168.176931504 0.8993 0.775948 -0.170954 0.898973 0.785253 -0.121229 0.897201 0.793824 0.0341006 0.898069 0.789246 -0.0917049 -7.41565 1.08509 0.734097 -7.41446 1.49369 0.957375 -0.0 0.0 -0.0 2.39496 24.4709 6.03647 -24.3886 -10.8317 70.4722 1.82825 -42.1618 0.704813 -84.9484 -8.44548 5.18585 4.89712 31.3064 42.1746 -0.0 0.0 -0.0 11.3089 5.0174 -22.6467 -21.0645 49.173 -53.7761 0.196934 5.57201 -0.00958349 -84.6793 8.41181 -5.19235 -10.3606 -22.1041 70.8652 0.0 0.0 0.0 13.8553 3.54328 -4.27778 -40.7208 -0.513258 6.09888 35.0703 9.53315 -4.41576 -18.5632 0.0 0.0 -0.0 0.0 -0.0 7.22453 -25.8594 9.31117 -28.5865 -0.0956047 -4.34065 34.806 32.0718 5.52119 8.16593 -0.0 -0.0 0.0 0.0 0.0 
3403.84495834 727.494 -1540.23072337 -165.601111435 86.2143429962 165.102208231 0.839721 0.756806 0.0289735 0.839406 0.753428 0.0770751 0.840369 0.723755 0.223105 0.841085 0.749907 0.105995 -6.17926 0.904529 0.860513 -6.17734 1.04096 1.03875 -0.0 0.0 -0.0 1.82503 24.0458 5.24668 -24.431 -7.20394 70.5295 1.74489 -40.8354 0.649574 -84.8498 -8.43314 5.18825 4.59393 31.1522 39.8935 -0.0 0.0 -0.0 11.2489 4.81354 -22.509 -17.2913 50.9813 -53.716 0.246807 6.9706 -0.0150318 -83.1049 8.21424 -5.22718 -10.2096 -20.9659 71.1697 0.0 0.0 0.0 14.9191 4.11024 -5.24756 -28.5403 0.0972005 4.33374 35.2467 7.49956 -4.42487 -25.1811 0.0 0.0 -0.0 0.0 -0.0 8.85802 -31.5593 10.685 -30.3254 -0.031467 -4.59978 36.523 33.523 5.82584 8.50109 -0.0 -0.0 0.0 0.0 0.0 
3400.68362432 729.264 -1541.09481121 -156.969262852 85.0302391238 156.335980338 1.11538 0.681699 0.140896 1.11514 0.671351 0.183991 1.1173 0.623836 0.308863 1.11778 0.664785 0.206461 -5.49493 0.983178 1.76971 -5.4864 0.494197 1.97151 -0.0 0.0 -0.0 1.45046 23.1243 4.67782 -23.5585 -2.59891 71.458 1.51107 -36.8139 0.502895 -84.7488 -8.42051 5.19069 4.26931 30.9389 37.5448 -0.0 0.0 -0.0 11.3959 4.7989 -22.8291 -14.7023 52.2882 -54.338 0.309003 8.70296 -0.0235134 -83.0352 8.20546 -5.2286 -10.2853 -21.539 71.0275 0.0 0.0 0.0 15.5222 3.85958 -5.4051 -18.7734 0.308219 2.85157 33.2015 6.81629 -4.2212 -30.2944 0.0 0.0 -0.0 0.0 -0.0 10.6712 -37.7043 11.4294 -28.5496 -0.0968831 -4.33511 36.547 34.0927 5.87535 6.52445 -0.0 -0.0 0.0 0.0 0.0 
3399.93414481 729.264 -1539.09849182 -159.602031286 84.4197596589 158.979904742 1.11538 0.681699 0.140896 1.11514 0.671351 0.183991 1.1173 0.623836 0.308863 1.11778 0.664785 0.206461 -5.49493 0.983178 1.76971 -5.4864 0.494197 1.97151 -0.0 0.0 -0.0 1.45046 23.1243 4.67782 -23.5585 -2.59891 71.458 1.51107 -36.8139 0.502895 -84.7488 -8.42051 5.19069 4.26931 30.9389 37.5448 -0.0 0.0 -0.0 11.3959 4.7989 -22.8291 -14.7023 52.2882 -54.338 0.309003 8.70296 -0.0235134 -83.0352 8.20546 -5.2286 -10.2853 -21.539 71.0275 0.0 0.0 0.0 15.5222 3.85958 -5.4051 -18.7734 0.308219 2.85157 33.2015 6.81629 -4.2212 -30.2944 0.0 0.0 -0.0 0.0 -0.0 10.6712 -37.7043 11.4294 -28.5496 -0.0968831 -4.33511 36.547 34.0927 5.87535 6.52445 -0.0 -0.0 0.0 0.0 0.0 
